<svg width="102" height="24" viewBox="0 0 102 24" fill="none" xmlns="http://www.w3.org/2000/svg">
    <path d="M52.283 16.011v2.823H42V5.919h10.045v2.823h-6.459v2.177h5.69v2.73h-5.69v2.362h6.697zM64.602 8.834l-4.099 10h-3.586l-4.08-10h3.567l2.38 6.107 2.506-6.107h3.312zM75.43 13.852c0 .025-.019.314-.055.868h-7.21c.147.516.428.916.842 1.199.427.27.958.406 1.592.406.476 0 .885-.068 1.226-.203a3.596 3.596 0 0 0 1.061-.664l1.83 1.918C73.753 18.46 72.344 19 70.49 19c-1.16 0-2.178-.221-3.056-.664-.878-.443-1.561-1.058-2.05-1.845-.475-.787-.713-1.68-.713-2.675 0-.985.232-1.864.695-2.639a4.983 4.983 0 0 1 1.958-1.845c.83-.443 1.763-.664 2.8-.664.988 0 1.884.209 2.69.627a4.54 4.54 0 0 1 1.902 1.79c.476.775.714 1.697.714 2.767zm-5.288-2.693c-.537 0-.988.153-1.354.46-.354.308-.58.727-.677 1.255h4.062c-.098-.528-.33-.947-.695-1.254-.354-.308-.8-.461-1.336-.461zM83.552 8.668c1.232 0 2.22.369 2.965 1.107.756.738 1.134 1.851 1.134 3.34v5.719h-3.476v-5.148c0-1.365-.543-2.048-1.629-2.048-.598 0-1.08.197-1.445.59-.354.394-.53.985-.53 1.772v4.834h-3.477v-10h3.311v1.089c.39-.406.854-.714 1.391-.923a4.562 4.562 0 0 1 1.756-.332zM96.738 18.428a3.483 3.483 0 0 1-1.08.424c-.415.099-.86.148-1.335.148-1.293 0-2.288-.32-2.983-.96-.695-.639-1.043-1.592-1.043-2.86v-3.357h-1.445v-2.62h1.445V6.6h3.477v2.602h2.269v2.62h-2.27v3.32c0 .358.092.64.275.85.195.196.451.295.769.295a1.83 1.83 0 0 0 1.06-.314l.86 2.454zM98.14 8.834h3.476v10h-3.477v-10zm1.737-1.107c-.634 0-1.146-.178-1.536-.535-.39-.357-.586-.8-.586-1.329 0-.528.195-.971.586-1.328.39-.357.902-.535 1.537-.535.634 0 1.146.172 1.536.517.391.332.586.762.586 1.291 0 .554-.195 1.015-.586 1.384-.39.357-.902.535-1.537.535z" fill="#060F5F"/>
    <path fill-rule="evenodd" clip-rule="evenodd" d="M1.46 0C.655 0 0 .66 0 1.472V8.32c2.017 0 3.652 1.648 3.652 3.681 0 2.033-1.635 3.681-3.652 3.681v6.847C0 23.34.654 24 1.46 24h31.08c.806 0 1.46-.66 1.46-1.472V15.68c-2.017 0-3.652-1.648-3.652-3.681 0-2.033 1.635-3.681 3.652-3.681V1.472C34 .66 33.346 0 32.54 0H1.46zm8.166 3.922c-1.2 0-2.174.983-2.174 2.196s.973 2.196 2.174 2.196h14.748c1.2 0 2.174-.983 2.174-2.196a2.185 2.185 0 0 0-2.174-2.196H9.626zm-2.174 13.96c0-1.213.973-2.196 2.174-2.196h14.748c1.2 0 2.174.983 2.174 2.196a2.185 2.185 0 0 1-2.174 2.196H9.626c-1.2 0-2.174-.983-2.174-2.196zm2.19-8c-1.21 0-2.19.984-2.19 2.196 0 1.213.98 2.197 2.19 2.197h7.885c1.21 0 2.19-.984 2.19-2.197 0-1.212-.98-2.196-2.19-2.196H9.642z" fill="#279AF1"/>
    <path d="M22.2 12a2 2 0 1 1 4 0 2 2 0 0 1-4 0z" fill="#060F5F"/>
</svg>
