<svg width="84" height="176" viewBox="0 0 84 176" fill="none" xmlns="http://www.w3.org/2000/svg">
    <path d="M0 14.45v8.33L74.848 0h-27.37L0 14.45zM40.609 0 0 12.36V0h40.609zM79.333.725 0 24.871v8.331L83.992 7.638A8.003 8.003 0 0 0 79.333.725zM84 9.726 0 35.293v8.33l84-25.566v-8.33zM84 20.147 0 45.714v8.33l84-25.566v-8.33zM84 30.568 0 56.134v8.331L84 38.9v-8.33zM84 40.99 0 66.555v8.33L84 49.32v-8.33zM84 51.41 0 76.977v8.33l84-25.566v-8.33zM84 61.831 0 87.398v8.33l84-25.566v-8.33zM84 72.253 0 97.819v8.33l72.672-22.118C74.311 79.354 78.764 76 84 76v-3.747zM72.121 86.29 0 108.24v8.33l73.689-22.428A11.944 11.944 0 0 1 72 88c0-.58.041-1.152.121-1.71zM74.928 95.856 0 118.66v8.331l84-25.567V100a11.973 11.973 0 0 1-9.072-4.144zM84 103.516 0 129.082v8.331l84-25.567v-8.33zM84 113.937 0 139.503v8.33l84-25.566v-8.33zM84 124.358 0 149.924v8.331l84-25.567v-8.33zM84 134.779 0 160.345v8.331l84-25.567v-8.33zM84 145.2 0 170.766V176h10.174L84 153.53v-8.33zM84 155.621 17.043 176h27.371L84 163.952v-8.331zM84 166.042 51.283 176H76a8 8 0 0 0 8-8v-1.958z"
          fill="#F5F5F7"/>
    <path d="M74.848 0H76c1.19 0 2.319.26 3.333.725L0 24.871v-2.09L74.848 0zM47.478 0h-6.869L0 12.36v2.09L47.478 0zM0 33.202v2.09L84 9.727V8c0-.121-.003-.242-.008-.362L0 33.202zM84 18.057 0 43.623v2.09l84-25.566v-2.09zM84 28.477 0 54.044v2.09l84-25.566v-2.09zM84 38.899 0 64.465v2.09L84 40.99V38.9zM84 49.32 0 74.886v2.09L84 51.41v-2.09zM84 59.74 0 85.308v2.09l84-25.566v-2.09zM84 70.162 0 95.728v2.091l84-25.566v-2.09zM72.672 84.03 0 106.15v2.091l72.121-21.95c.111-.78.297-1.536.551-2.26zM73.689 94.142 0 116.57v2.091l74.928-22.805a12.037 12.037 0 0 1-1.239-1.714zM84 101.425 0 126.992v2.09l84-25.566v-2.091zM84 111.846 0 137.413v2.09l84-25.566v-2.091zM84 122.267 0 147.833v2.091l84-25.566v-2.091zM84 132.688 0 158.255v2.09l84-25.566v-2.091zM84 143.109 0 168.676v2.09L84 145.2v-2.091zM84 153.53 10.174 176h6.869L84 155.621v-2.091zM84 163.952 44.414 176h6.87L84 166.042v-2.09z"
          fill="#fff"/>
</svg>
